<?xml version="1.0" encoding="UTF-8" standalone="no"?>
<!DOCTYPE svg PUBLIC "-//W3C//DTD SVG 1.1//EN"
 "http://www.w3.org/Graphics/SVG/1.1/DTD/svg11.dtd">
<!-- Generated by graphviz version 2.40.1 (20161225.0304)
 -->
<!-- Title: a&#45;fabnacci.cpp.022t.fixup_cfg1 Pages: 1 -->
<svg width="1532pt" height="1337pt"
 viewBox="0.00 0.00 1532.00 1337.20" xmlns="http://www.w3.org/2000/svg" xmlns:xlink="http://www.w3.org/1999/xlink">
<g id="graph0" class="graph" transform="scale(1 1) rotate(0) translate(4 1333.2)">
<title>a&#45;fabnacci.cpp.022t.fixup_cfg1</title>
<polygon fill="#ffffff" stroke="transparent" points="-4,4 -4,-1333.2 1528,-1333.2 1528,4 -4,4"/>
<g id="clust1" class="cluster">
<title>cluster_main</title>
<polygon fill="none" stroke="#000000" stroke-dasharray="5,2" points="8,-8 8,-1321.2 674,-1321.2 674,-8 8,-8"/>
<text text-anchor="middle" x="341" y="-1304.6" font-family="Times,serif" font-size="14.00" fill="#000000">main ()</text>
</g>
<g id="clust2" class="cluster">
<title>cluster_1731_1</title>
<polygon fill="#e0e0e0" stroke="#006400" stroke-width="2" points="16,-20.4 16,-558.4 412,-558.4 412,-20.4 16,-20.4"/>
<text text-anchor="middle" x="41.6953" y="-541.8" font-family="Times,serif" font-size="14.00" fill="#000000">loop 1</text>
</g>
<g id="clust3" class="cluster">
<title>cluster___static_initialization_and_destruction_0</title>
<polygon fill="none" stroke="#000000" stroke-dasharray="5,2" points="682,-656.7 682,-1321.2 1158,-1321.2 1158,-656.7 682,-656.7"/>
<text text-anchor="middle" x="920" y="-1304.6" font-family="Times,serif" font-size="14.00" fill="#000000">__static_initialization_and_destruction_0 ()</text>
</g>
<g id="clust4" class="cluster">
<title>cluster__GLOBAL__sub_I_main</title>
<polygon fill="none" stroke="#000000" stroke-dasharray="5,2" points="1166,-978.9 1166,-1321.2 1516,-1321.2 1516,-978.9 1166,-978.9"/>
<text text-anchor="middle" x="1341" y="-1304.6" font-family="Times,serif" font-size="14.00" fill="#000000">_GLOBAL__sub_I_main ()</text>
</g>
<!-- fn_1731_basic_block_11 -->
<g id="node1" class="node">
<title>fn_1731_basic_block_11</title>
<polygon fill="#d3d3d3" stroke="#000000" points="263.8673,-400.3 263.8673,-525.1 404.1327,-525.1 404.1327,-400.3 263.8673,-400.3"/>
<text text-anchor="start" x="271.8673" y="-508.5" font-family="Times,serif" font-size="14.00" fill="#000000">&lt;bb 11&gt;:</text>
<polyline fill="none" stroke="#000000" points="263.8673,-500.3 404.1327,-500.3 "/>
<text text-anchor="start" x="271.8673" y="-483.7" font-family="Times,serif" font-size="14.00" fill="#000000">n.0_4 = n;</text>
<polyline fill="none" stroke="#000000" points="263.8673,-475.5 404.1327,-475.5 "/>
<text text-anchor="start" x="271.8673" y="-458.9" font-family="Times,serif" font-size="14.00" fill="#000000">if (i &lt; n.0_4)</text>
<text text-anchor="start" x="271.8673" y="-442.1" font-family="Times,serif" font-size="14.00" fill="#000000"> &#160;goto &lt;bb 8&gt;; [INV]</text>
<text text-anchor="start" x="271.8673" y="-425.3" font-family="Times,serif" font-size="14.00" fill="#000000">else</text>
<text text-anchor="start" x="271.8673" y="-408.5" font-family="Times,serif" font-size="14.00" fill="#000000"> &#160;goto &lt;bb 12&gt;; [INV]</text>
</g>
<!-- fn_1731_basic_block_8 -->
<g id="node2" class="node">
<title>fn_1731_basic_block_8</title>
<polygon fill="#d3d3d3" stroke="#000000" points="24.2522,-264.1 24.2522,-363.3 383.7478,-363.3 383.7478,-264.1 24.2522,-264.1"/>
<text text-anchor="start" x="32.2522" y="-346.7" font-family="Times,serif" font-size="14.00" fill="#000000">&lt;bb 8&gt;:</text>
<polyline fill="none" stroke="#000000" points="24.2522,-338.5 383.7478,-338.5 "/>
<text text-anchor="start" x="32.2522" y="-321.9" font-family="Times,serif" font-size="14.00" fill="#000000">t = b;</text>
<polyline fill="none" stroke="#000000" points="24.2522,-313.7 383.7478,-313.7 "/>
<text text-anchor="start" x="32.2522" y="-297.1" font-family="Times,serif" font-size="14.00" fill="#000000">b = a + b;</text>
<polyline fill="none" stroke="#000000" points="24.2522,-288.9 383.7478,-288.9 "/>
<text text-anchor="start" x="32.2522" y="-272.3" font-family="Times,serif" font-size="14.00" fill="#000000">D.49122 = std::basic_ostream&lt;char&gt;::operator&lt;&lt; (&amp;cout, b);</text>
</g>
<!-- fn_1731_basic_block_11&#45;&gt;fn_1731_basic_block_8 -->
<g id="edge18" class="edge">
<title>fn_1731_basic_block_11:s&#45;&gt;fn_1731_basic_block_8:n</title>
<path fill="none" stroke="#000000" stroke-width="2" d="M334,-400.7C334,-344.6168 220.6924,-413.3613 205.6437,-373.8568"/>
<polygon fill="#000000" stroke="#000000" stroke-width="2" points="209.0527,-373.0124 204,-363.7 202.1426,-374.1307 209.0527,-373.0124"/>
</g>
<!-- fn_1731_basic_block_12 -->
<g id="node13" class="node">
<title>fn_1731_basic_block_12</title>
<polygon fill="#d3d3d3" stroke="#000000" points="422.1097,-276.5 422.1097,-350.9 541.8903,-350.9 541.8903,-276.5 422.1097,-276.5"/>
<text text-anchor="start" x="430.1097" y="-334.3" font-family="Times,serif" font-size="14.00" fill="#000000">&lt;bb 12&gt;:</text>
<polyline fill="none" stroke="#000000" points="422.1097,-326.1 541.8903,-326.1 "/>
<text text-anchor="start" x="430.1097" y="-309.5" font-family="Times,serif" font-size="14.00" fill="#000000">n = {CLOBBER};</text>
<polyline fill="none" stroke="#000000" points="422.1097,-301.3 541.8903,-301.3 "/>
<text text-anchor="start" x="430.1097" y="-284.7" font-family="Times,serif" font-size="14.00" fill="#000000">D.49118 = 0;</text>
</g>
<!-- fn_1731_basic_block_11&#45;&gt;fn_1731_basic_block_12 -->
<g id="edge19" class="edge">
<title>fn_1731_basic_block_11:s&#45;&gt;fn_1731_basic_block_12:n</title>
<path fill="none" stroke="#000000" stroke-width="2" d="M334,-400.7C334,-335.0668 466.2551,-410.8844 480.7205,-360.7225"/>
<polygon fill="#000000" stroke="#000000" stroke-width="2" points="484.2054,-361.0627 482,-350.7 477.2618,-360.1763 484.2054,-361.0627"/>
</g>
<!-- fn_1731_basic_block_9 -->
<g id="node3" class="node">
<title>fn_1731_basic_block_9</title>
<polygon fill="#d3d3d3" stroke="#000000" points="57.9481,-152.7 57.9481,-227.1 350.0519,-227.1 350.0519,-152.7 57.9481,-152.7"/>
<text text-anchor="start" x="65.9481" y="-210.5" font-family="Times,serif" font-size="14.00" fill="#000000">&lt;bb 9&gt;:</text>
<polyline fill="none" stroke="#000000" points="57.9481,-202.3 350.0519,-202.3 "/>
<text text-anchor="start" x="65.9481" y="-185.7" font-family="Times,serif" font-size="14.00" fill="#000000">_3 = D.49122;</text>
<polyline fill="none" stroke="#000000" points="57.9481,-177.5 350.0519,-177.5 "/>
<text text-anchor="start" x="65.9481" y="-160.9" font-family="Times,serif" font-size="14.00" fill="#000000">std::basic_ostream&lt;char&gt;::operator&lt;&lt; (_3, endl);</text>
</g>
<!-- fn_1731_basic_block_8&#45;&gt;fn_1731_basic_block_9 -->
<g id="edge14" class="edge">
<title>fn_1731_basic_block_8:s&#45;&gt;fn_1731_basic_block_9:n</title>
<path fill="none" stroke="#0000ff" stroke-width="2" d="M204,-263.7C204,-251.3056 204,-245.9556 204,-236.9733"/>
<polygon fill="#0000ff" stroke="#0000ff" stroke-width="2" points="207.5001,-236.9 204,-226.9 200.5001,-236.9 207.5001,-236.9"/>
</g>
<!-- fn_1731_basic_block_14 -->
<g id="node15" class="node">
<title>fn_1731_basic_block_14</title>
<polygon fill="#d3d3d3" stroke="#000000" points="545.1097,-16.5 545.1097,-115.7 664.8903,-115.7 664.8903,-16.5 545.1097,-16.5"/>
<text text-anchor="start" x="553.1097" y="-99.1" font-family="Times,serif" font-size="14.00" fill="#000000">&lt;bb 14&gt;:</text>
<polyline fill="none" stroke="#000000" points="545.1097,-90.9 664.8903,-90.9 "/>
<text text-anchor="start" x="553.1097" y="-74.3" font-family="Times,serif" font-size="14.00" fill="#000000">&lt;L4&gt;:</text>
<polyline fill="none" stroke="#000000" points="545.1097,-66.1 664.8903,-66.1 "/>
<text text-anchor="start" x="553.1097" y="-49.5" font-family="Times,serif" font-size="14.00" fill="#000000">n = {CLOBBER};</text>
<polyline fill="none" stroke="#000000" points="545.1097,-41.3 664.8903,-41.3 "/>
<text text-anchor="start" x="553.1097" y="-24.7" font-family="Times,serif" font-size="14.00" fill="#000000">resx 1</text>
</g>
<!-- fn_1731_basic_block_8&#45;&gt;fn_1731_basic_block_14 -->
<g id="edge13" class="edge">
<title>fn_1731_basic_block_8:s&#45;&gt;fn_1731_basic_block_14:n</title>
<path fill="none" stroke="#000000" stroke-width="2" d="M204,-263.7C204,-189.7083 472.7334,-267.5705 535,-227.6 567.8414,-206.5183 558.8788,-185.016 580,-152.2 588.3344,-139.2508 599.0816,-136.4117 603.2447,-126.202"/>
<polygon fill="#000000" stroke="#000000" stroke-width="2" points="606.7363,-126.5516 605,-116.1 599.8397,-125.3532 606.7363,-126.5516"/>
</g>
<!-- fn_1731_basic_block_10 -->
<g id="node4" class="node">
<title>fn_1731_basic_block_10</title>
<polygon fill="#d3d3d3" stroke="#000000" points="170.4101,-28.9 170.4101,-103.3 237.5899,-103.3 237.5899,-28.9 170.4101,-28.9"/>
<text text-anchor="start" x="178.4101" y="-86.7" font-family="Times,serif" font-size="14.00" fill="#000000">&lt;bb 10&gt;:</text>
<polyline fill="none" stroke="#000000" points="170.4101,-78.5 237.5899,-78.5 "/>
<text text-anchor="start" x="178.4101" y="-61.9" font-family="Times,serif" font-size="14.00" fill="#000000">a = t;</text>
<polyline fill="none" stroke="#000000" points="170.4101,-53.7 237.5899,-53.7 "/>
<text text-anchor="start" x="178.4101" y="-37.1" font-family="Times,serif" font-size="14.00" fill="#000000">i = i + 1;</text>
</g>
<!-- fn_1731_basic_block_9&#45;&gt;fn_1731_basic_block_10 -->
<g id="edge16" class="edge">
<title>fn_1731_basic_block_9:s&#45;&gt;fn_1731_basic_block_10:n</title>
<path fill="none" stroke="#0000ff" stroke-width="2" d="M204,-152.9C204,-134.5708 204,-127.6258 204,-113.2099"/>
<polygon fill="#0000ff" stroke="#0000ff" stroke-width="2" points="207.5001,-113.1 204,-103.1 200.5001,-113.1 207.5001,-113.1"/>
</g>
<!-- fn_1731_basic_block_9&#45;&gt;fn_1731_basic_block_14 -->
<g id="edge15" class="edge">
<title>fn_1731_basic_block_9:s&#45;&gt;fn_1731_basic_block_14:n</title>
<path fill="none" stroke="#000000" stroke-width="2" d="M204,-152.9C204,-67.0847 572.7801,-194.3128 603.0316,-125.9738"/>
<polygon fill="#000000" stroke="#000000" stroke-width="2" points="606.4772,-126.5913 605,-116.1 599.6123,-125.2227 606.4772,-126.5913"/>
</g>
<!-- fn_1731_basic_block_10&#45;&gt;fn_1731_basic_block_11 -->
<g id="edge17" class="edge">
<title>fn_1731_basic_block_10:s&#45;&gt;fn_1731_basic_block_11:n</title>
<path fill="none" stroke="#0000ff" stroke-width="2" stroke-dasharray="1,5" d="M204,-29.1C204,-14.1712 226.77,-18.8141 237.5899,-29.1 251.6361,-42.453 230.0955,-100.9068 242,-116.2 275.4192,-159.132 320.573,-113.6855 359,-152.2 395.5623,-188.8455 383.2799,-212.755 393,-263.6 404.4043,-323.2549 401.6567,-339.1153 404.1327,-399.8 404.6985,-413.6662 413.9458,-514.8869 404.1327,-524.7 395.437,-533.3957 356.7982,-538.0721 340.8844,-532.0013"/>
<polygon fill="#0000ff" stroke="#0000ff" stroke-width="2" points="343.4068,-529.5746 334,-524.7 338.3138,-534.3769 343.4068,-529.5746"/>
</g>
<!-- fn_1731_basic_block_0 -->
<g id="node5" class="node">
<title>fn_1731_basic_block_0</title>
<polygon fill="#ffffff" stroke="#000000" points="334,-1288.4 272.76,-1270.4 334,-1252.4 395.24,-1270.4 334,-1288.4"/>
<polyline fill="none" stroke="#000000" points="284.273,-1273.784 284.273,-1267.016 "/>
<polyline fill="none" stroke="#000000" points="322.487,-1255.784 345.513,-1255.784 "/>
<polyline fill="none" stroke="#000000" points="383.727,-1267.016 383.727,-1273.784 "/>
<polyline fill="none" stroke="#000000" points="345.513,-1285.016 322.487,-1285.016 "/>
<text text-anchor="middle" x="334" y="-1266.2" font-family="Times,serif" font-size="14.00" fill="#000000">ENTRY</text>
</g>
<!-- fn_1731_basic_block_1 -->
<g id="node6" class="node">
<title>fn_1731_basic_block_1</title>
<polygon fill="#ffffff" stroke="#000000" points="473,-84.1 426.1002,-66.1 473,-48.1 519.8998,-66.1 473,-84.1"/>
<polyline fill="none" stroke="#000000" points="437.3034,-70.3998 437.3034,-61.8002 "/>
<polyline fill="none" stroke="#000000" points="461.7968,-52.3998 484.2032,-52.3998 "/>
<polyline fill="none" stroke="#000000" points="508.6966,-61.8002 508.6966,-70.3998 "/>
<polyline fill="none" stroke="#000000" points="484.2032,-79.8002 461.7968,-79.8002 "/>
<text text-anchor="middle" x="473" y="-61.9" font-family="Times,serif" font-size="14.00" fill="#000000">EXIT</text>
</g>
<!-- fn_1731_basic_block_0&#45;&gt;fn_1731_basic_block_1 -->
<!-- fn_1731_basic_block_2 -->
<g id="node7" class="node">
<title>fn_1731_basic_block_2</title>
<polygon fill="#d3d3d3" stroke="#000000" points="185.6122,-1091.9 185.6122,-1215.9 482.3878,-1215.9 482.3878,-1091.9 185.6122,-1091.9"/>
<text text-anchor="start" x="193.6122" y="-1199.3" font-family="Times,serif" font-size="14.00" fill="#000000">&lt;bb 2&gt;:</text>
<polyline fill="none" stroke="#000000" points="185.6122,-1191.1 482.3878,-1191.1 "/>
<text text-anchor="start" x="193.6122" y="-1174.5" font-family="Times,serif" font-size="14.00" fill="#000000">a = 0;</text>
<polyline fill="none" stroke="#000000" points="185.6122,-1166.3 482.3878,-1166.3 "/>
<text text-anchor="start" x="193.6122" y="-1149.7" font-family="Times,serif" font-size="14.00" fill="#000000">b = 1;</text>
<polyline fill="none" stroke="#000000" points="185.6122,-1141.5 482.3878,-1141.5 "/>
<text text-anchor="start" x="193.6122" y="-1124.9" font-family="Times,serif" font-size="14.00" fill="#000000">i = 1;</text>
<polyline fill="none" stroke="#000000" points="185.6122,-1116.7 482.3878,-1116.7 "/>
<text text-anchor="start" x="193.6122" y="-1100.1" font-family="Times,serif" font-size="14.00" fill="#000000">std::basic_istream&lt;char&gt;::operator&gt;&gt; (&amp;cin, &amp;n);</text>
</g>
<!-- fn_1731_basic_block_0&#45;&gt;fn_1731_basic_block_2 -->
<g id="edge1" class="edge">
<title>fn_1731_basic_block_0:s&#45;&gt;fn_1731_basic_block_2:n</title>
<path fill="none" stroke="#0000ff" stroke-width="2" d="M334,-1252.4C334,-1240.2333 334,-1234.9104 334,-1226.1656"/>
<polygon fill="#0000ff" stroke="#0000ff" stroke-width="2" points="337.5001,-1225.9 334,-1215.9 330.5001,-1225.9 337.5001,-1225.9"/>
</g>
<!-- fn_1731_basic_block_3 -->
<g id="node8" class="node">
<title>fn_1731_basic_block_3</title>
<polygon fill="#d3d3d3" stroke="#000000" points="154.6449,-980.1 154.6449,-1029.7 513.3551,-1029.7 513.3551,-980.1 154.6449,-980.1"/>
<text text-anchor="start" x="162.6449" y="-1013.1" font-family="Times,serif" font-size="14.00" fill="#000000">&lt;bb 3&gt;:</text>
<polyline fill="none" stroke="#000000" points="154.6449,-1004.9 513.3551,-1004.9 "/>
<text text-anchor="start" x="162.6449" y="-988.3" font-family="Times,serif" font-size="14.00" fill="#000000">D.49120 = std::basic_ostream&lt;char&gt;::operator&lt;&lt; (&amp;cout, a);</text>
</g>
<!-- fn_1731_basic_block_2&#45;&gt;fn_1731_basic_block_3 -->
<g id="edge3" class="edge">
<title>fn_1731_basic_block_2:s&#45;&gt;fn_1731_basic_block_3:n</title>
<path fill="none" stroke="#0000ff" stroke-width="2" d="M334,-1091.9C334,-1068.1118 334,-1059.7255 334,-1040.1488"/>
<polygon fill="#0000ff" stroke="#0000ff" stroke-width="2" points="337.5001,-1039.9 334,-1029.9 330.5001,-1039.9 337.5001,-1039.9"/>
</g>
<!-- fn_1731_basic_block_2&#45;&gt;fn_1731_basic_block_14 -->
<g id="edge2" class="edge">
<title>fn_1731_basic_block_2:s&#45;&gt;fn_1731_basic_block_14:n</title>
<path fill="none" stroke="#000000" stroke-width="2" d="M334,-1091.9C334,-1049.3421 485.4607,-1077.2187 522,-1055.4 608.1491,-1003.9578 665,-981.0393 665,-880.7 665,-880.7 665,-880.7 665,-313.7 665,-240.5268 663.3477,-218.7833 633,-152.2 626.2894,-137.4767 612.4935,-136.1886 607.1659,-125.9981"/>
<polygon fill="#000000" stroke="#000000" stroke-width="2" points="610.5568,-125.1207 605,-116.1 603.7186,-126.617 610.5568,-125.1207"/>
</g>
<!-- fn_1731_basic_block_4 -->
<g id="node9" class="node">
<title>fn_1731_basic_block_4</title>
<polygon fill="#d3d3d3" stroke="#000000" points="187.9481,-843.5 187.9481,-917.9 480.0519,-917.9 480.0519,-843.5 187.9481,-843.5"/>
<text text-anchor="start" x="195.9481" y="-901.3" font-family="Times,serif" font-size="14.00" fill="#000000">&lt;bb 4&gt;:</text>
<polyline fill="none" stroke="#000000" points="187.9481,-893.1 480.0519,-893.1 "/>
<text text-anchor="start" x="195.9481" y="-876.5" font-family="Times,serif" font-size="14.00" fill="#000000">_1 = D.49120;</text>
<polyline fill="none" stroke="#000000" points="187.9481,-868.3 480.0519,-868.3 "/>
<text text-anchor="start" x="195.9481" y="-851.7" font-family="Times,serif" font-size="14.00" fill="#000000">std::basic_ostream&lt;char&gt;::operator&lt;&lt; (_1, endl);</text>
</g>
<!-- fn_1731_basic_block_3&#45;&gt;fn_1731_basic_block_4 -->
<g id="edge5" class="edge">
<title>fn_1731_basic_block_3:s&#45;&gt;fn_1731_basic_block_4:n</title>
<path fill="none" stroke="#0000ff" stroke-width="2" d="M334,-979.9C334,-955.9271 334,-947.5459 334,-927.7146"/>
<polygon fill="#0000ff" stroke="#0000ff" stroke-width="2" points="337.5001,-927.7 334,-917.7 330.5001,-927.7 337.5001,-927.7"/>
</g>
<!-- fn_1731_basic_block_3&#45;&gt;fn_1731_basic_block_14 -->
<g id="edge4" class="edge">
<title>fn_1731_basic_block_3:s&#45;&gt;fn_1731_basic_block_14:n</title>
<path fill="none" stroke="#000000" stroke-width="2" d="M334,-979.9C334,-905.7866 425.7639,-957.0521 489,-918.4 567.6567,-870.3223 645,-873.8865 645,-781.7 645,-781.7 645,-781.7 645,-313.7 645,-240.998 638.0265,-222.3682 619,-152.2 615.5519,-139.4838 609.1772,-135.1655 606.3784,-126.1167"/>
<polygon fill="#000000" stroke="#000000" stroke-width="2" points="609.8307,-125.5295 605,-116.1 602.896,-126.4838 609.8307,-125.5295"/>
</g>
<!-- fn_1731_basic_block_5 -->
<g id="node10" class="node">
<title>fn_1731_basic_block_5</title>
<polygon fill="#d3d3d3" stroke="#000000" points="154.2522,-756.9 154.2522,-806.5 513.7478,-806.5 513.7478,-756.9 154.2522,-756.9"/>
<text text-anchor="start" x="162.2522" y="-789.9" font-family="Times,serif" font-size="14.00" fill="#000000">&lt;bb 5&gt;:</text>
<polyline fill="none" stroke="#000000" points="154.2522,-781.7 513.7478,-781.7 "/>
<text text-anchor="start" x="162.2522" y="-765.1" font-family="Times,serif" font-size="14.00" fill="#000000">D.49121 = std::basic_ostream&lt;char&gt;::operator&lt;&lt; (&amp;cout, b);</text>
</g>
<!-- fn_1731_basic_block_4&#45;&gt;fn_1731_basic_block_5 -->
<g id="edge7" class="edge">
<title>fn_1731_basic_block_4:s&#45;&gt;fn_1731_basic_block_5:n</title>
<path fill="none" stroke="#0000ff" stroke-width="2" d="M334,-843.7C334,-831.2382 334,-825.8592 334,-816.8281"/>
<polygon fill="#0000ff" stroke="#0000ff" stroke-width="2" points="337.5001,-816.7 334,-806.7 330.5001,-816.7 337.5001,-816.7"/>
</g>
<!-- fn_1731_basic_block_4&#45;&gt;fn_1731_basic_block_14 -->
<g id="edge6" class="edge">
<title>fn_1731_basic_block_4:s&#45;&gt;fn_1731_basic_block_14:n</title>
<path fill="none" stroke="#000000" stroke-width="2" d="M334,-843.7C334,-800.9155 486.253,-828.9129 523,-807 584.3791,-770.3985 625,-754.1637 625,-682.7 625,-682.7 625,-682.7 625,-313.7 625,-241.6133 618.2804,-223.8096 610,-152.2 608.6046,-140.1322 606.4898,-134.971 605.5196,-126.3113"/>
<polygon fill="#000000" stroke="#000000" stroke-width="2" points="609.0038,-125.9092 605,-116.1 602.0128,-126.265 609.0038,-125.9092"/>
</g>
<!-- fn_1731_basic_block_6 -->
<g id="node11" class="node">
<title>fn_1731_basic_block_6</title>
<polygon fill="#d3d3d3" stroke="#000000" points="187.9481,-645.5 187.9481,-719.9 480.0519,-719.9 480.0519,-645.5 187.9481,-645.5"/>
<text text-anchor="start" x="195.9481" y="-703.3" font-family="Times,serif" font-size="14.00" fill="#000000">&lt;bb 6&gt;:</text>
<polyline fill="none" stroke="#000000" points="187.9481,-695.1 480.0519,-695.1 "/>
<text text-anchor="start" x="195.9481" y="-678.5" font-family="Times,serif" font-size="14.00" fill="#000000">_2 = D.49121;</text>
<polyline fill="none" stroke="#000000" points="187.9481,-670.3 480.0519,-670.3 "/>
<text text-anchor="start" x="195.9481" y="-653.7" font-family="Times,serif" font-size="14.00" fill="#000000">std::basic_ostream&lt;char&gt;::operator&lt;&lt; (_2, endl);</text>
</g>
<!-- fn_1731_basic_block_5&#45;&gt;fn_1731_basic_block_6 -->
<g id="edge9" class="edge">
<title>fn_1731_basic_block_5:s&#45;&gt;fn_1731_basic_block_6:n</title>
<path fill="none" stroke="#0000ff" stroke-width="2" d="M334,-756.7C334,-744.2382 334,-738.8592 334,-729.8281"/>
<polygon fill="#0000ff" stroke="#0000ff" stroke-width="2" points="337.5001,-729.7 334,-719.7 330.5001,-729.7 337.5001,-729.7"/>
</g>
<!-- fn_1731_basic_block_5&#45;&gt;fn_1731_basic_block_14 -->
<g id="edge8" class="edge">
<title>fn_1731_basic_block_5:s&#45;&gt;fn_1731_basic_block_14:n</title>
<path fill="none" stroke="#000000" stroke-width="2" d="M334,-756.7C334,-685.9472 428.3601,-756.8522 489,-720.4 556.1382,-680.0415 605,-666.0349 605,-587.7 605,-587.7 605,-587.7 605,-313.7 605,-229.4799 605,-205.8341 605,-126.5829"/>
<polygon fill="#000000" stroke="#000000" stroke-width="2" points="608.5001,-126.1 605,-116.1 601.5001,-126.1 608.5001,-126.1"/>
</g>
<!-- fn_1731_basic_block_7 -->
<g id="node12" class="node">
<title>fn_1731_basic_block_7</title>
<polygon fill="#d3d3d3" stroke="#000000" points="267.3673,-566.9 267.3673,-608.5 400.6327,-608.5 400.6327,-566.9 267.3673,-566.9"/>
<text text-anchor="start" x="275.3673" y="-591.9" font-family="Times,serif" font-size="14.00" fill="#000000">&lt;bb 7&gt;:</text>
<text text-anchor="start" x="275.3673" y="-575.1" font-family="Times,serif" font-size="14.00" fill="#000000">goto &lt;bb 11&gt;; [INV]</text>
</g>
<!-- fn_1731_basic_block_6&#45;&gt;fn_1731_basic_block_7 -->
<g id="edge11" class="edge">
<title>fn_1731_basic_block_6:s&#45;&gt;fn_1731_basic_block_7:n</title>
<path fill="none" stroke="#0000ff" stroke-width="2" d="M334,-645.7C334,-633.2382 334,-627.8592 334,-618.8281"/>
<polygon fill="#0000ff" stroke="#0000ff" stroke-width="2" points="337.5001,-618.7 334,-608.7 330.5001,-618.7 337.5001,-618.7"/>
</g>
<!-- fn_1731_basic_block_6&#45;&gt;fn_1731_basic_block_14 -->
<g id="edge10" class="edge">
<title>fn_1731_basic_block_6:s&#45;&gt;fn_1731_basic_block_14:n</title>
<path fill="none" stroke="#000000" stroke-width="2" d="M334,-645.7C334,-586.5189 412.3507,-641.2079 462,-609 533.267,-562.7686 585,-547.649 585,-462.7 585,-462.7 585,-462.7 585,-313.7 585,-241.6133 591.7196,-223.8096 600,-152.2 601.3954,-140.1322 603.5102,-134.971 604.4804,-126.3113"/>
<polygon fill="#000000" stroke="#000000" stroke-width="2" points="607.9872,-126.265 605,-116.1 600.9962,-125.9092 607.9872,-126.265"/>
</g>
<!-- fn_1731_basic_block_7&#45;&gt;fn_1731_basic_block_11 -->
<g id="edge12" class="edge">
<title>fn_1731_basic_block_7:s&#45;&gt;fn_1731_basic_block_11:n</title>
<path fill="none" stroke="#0000ff" stroke-width="2" d="M334,-566.7C334,-551.9708 334,-545.9583 334,-534.9065"/>
<polygon fill="#0000ff" stroke="#0000ff" stroke-width="2" points="337.5001,-534.7 334,-524.7 330.5001,-534.7 337.5001,-534.7"/>
</g>
<!-- fn_1731_basic_block_13 -->
<g id="node14" class="node">
<title>fn_1731_basic_block_13</title>
<polygon fill="#d3d3d3" stroke="#000000" points="420.2882,-152.7 420.2882,-227.1 525.7118,-227.1 525.7118,-152.7 420.2882,-152.7"/>
<text text-anchor="start" x="428.2882" y="-210.5" font-family="Times,serif" font-size="14.00" fill="#000000">&lt;bb 13&gt;:</text>
<polyline fill="none" stroke="#000000" points="420.2882,-202.3 525.7118,-202.3 "/>
<text text-anchor="start" x="428.2882" y="-185.7" font-family="Times,serif" font-size="14.00" fill="#000000">&lt;L3&gt;:</text>
<polyline fill="none" stroke="#000000" points="420.2882,-177.5 525.7118,-177.5 "/>
<text text-anchor="start" x="428.2882" y="-160.9" font-family="Times,serif" font-size="14.00" fill="#000000">return D.49118;</text>
</g>
<!-- fn_1731_basic_block_12&#45;&gt;fn_1731_basic_block_13 -->
<g id="edge20" class="edge">
<title>fn_1731_basic_block_12:s&#45;&gt;fn_1731_basic_block_13:n</title>
<path fill="none" stroke="#0000ff" stroke-width="2" d="M482,-276.7C482,-258.0739 475.8279,-251.5696 473.7062,-237.1104"/>
<polygon fill="#0000ff" stroke="#0000ff" stroke-width="2" points="477.1818,-236.6346 473,-226.9 470.1984,-237.1177 477.1818,-236.6346"/>
</g>
<!-- fn_1731_basic_block_13&#45;&gt;fn_1731_basic_block_1 -->
<g id="edge21" class="edge">
<title>fn_1731_basic_block_13:s&#45;&gt;fn_1731_basic_block_1:n</title>
<path fill="none" stroke="#000000" stroke-width="2" d="M473,-152.9C473,-126.025 473,-116.8655 473,-94.2809"/>
<polygon fill="#000000" stroke="#000000" stroke-width="2" points="476.5001,-94.1 473,-84.1 469.5001,-94.1 476.5001,-94.1"/>
</g>
<!-- fn_2231_basic_block_0 -->
<g id="node16" class="node">
<title>fn_2231_basic_block_0</title>
<polygon fill="#ffffff" stroke="#000000" points="1054,-1288.4 992.76,-1270.4 1054,-1252.4 1115.24,-1270.4 1054,-1288.4"/>
<polyline fill="none" stroke="#000000" points="1004.273,-1273.784 1004.273,-1267.016 "/>
<polyline fill="none" stroke="#000000" points="1042.487,-1255.784 1065.513,-1255.784 "/>
<polyline fill="none" stroke="#000000" points="1103.727,-1267.016 1103.727,-1273.784 "/>
<polyline fill="none" stroke="#000000" points="1065.513,-1285.016 1042.487,-1285.016 "/>
<text text-anchor="middle" x="1054" y="-1266.2" font-family="Times,serif" font-size="14.00" fill="#000000">ENTRY</text>
</g>
<!-- fn_2231_basic_block_1 -->
<g id="node17" class="node">
<title>fn_2231_basic_block_1</title>
<polygon fill="#ffffff" stroke="#000000" points="910,-700.7 863.1002,-682.7 910,-664.7 956.8998,-682.7 910,-700.7"/>
<polyline fill="none" stroke="#000000" points="874.3034,-686.9998 874.3034,-678.4002 "/>
<polyline fill="none" stroke="#000000" points="898.7968,-668.9998 921.2032,-668.9998 "/>
<polyline fill="none" stroke="#000000" points="945.6966,-678.4002 945.6966,-686.9998 "/>
<polyline fill="none" stroke="#000000" points="921.2032,-696.4002 898.7968,-696.4002 "/>
<text text-anchor="middle" x="910" y="-678.5" font-family="Times,serif" font-size="14.00" fill="#000000">EXIT</text>
</g>
<!-- fn_2231_basic_block_0&#45;&gt;fn_2231_basic_block_1 -->
<!-- fn_2231_basic_block_2 -->
<g id="node18" class="node">
<title>fn_2231_basic_block_2</title>
<polygon fill="#d3d3d3" stroke="#000000" points="981.9255,-1103.9 981.9255,-1203.9 1126.0745,-1203.9 1126.0745,-1103.9 981.9255,-1103.9"/>
<text text-anchor="start" x="989.9255" y="-1187.3" font-family="Times,serif" font-size="14.00" fill="#000000">&lt;bb 2&gt;:</text>
<polyline fill="none" stroke="#000000" points="981.9255,-1179.1 1126.0745,-1179.1 "/>
<text text-anchor="start" x="989.9255" y="-1162.5" font-family="Times,serif" font-size="14.00" fill="#000000">if (__initialize_p == 1)</text>
<text text-anchor="start" x="989.9255" y="-1145.7" font-family="Times,serif" font-size="14.00" fill="#000000"> &#160;goto &lt;bb 3&gt;; [INV]</text>
<text text-anchor="start" x="989.9255" y="-1128.9" font-family="Times,serif" font-size="14.00" fill="#000000">else</text>
<text text-anchor="start" x="989.9255" y="-1112.1" font-family="Times,serif" font-size="14.00" fill="#000000"> &#160;goto &lt;bb 5&gt;; [INV]</text>
</g>
<!-- fn_2231_basic_block_0&#45;&gt;fn_2231_basic_block_2 -->
<g id="edge23" class="edge">
<title>fn_2231_basic_block_0:s&#45;&gt;fn_2231_basic_block_2:n</title>
<path fill="none" stroke="#0000ff" stroke-width="2" d="M1054,-1252.4C1054,-1234.7177 1054,-1227.9142 1054,-1214.1414"/>
<polygon fill="#0000ff" stroke="#0000ff" stroke-width="2" points="1057.5001,-1213.9 1054,-1203.9 1050.5001,-1213.9 1057.5001,-1213.9"/>
</g>
<!-- fn_2231_basic_block_3 -->
<g id="node19" class="node">
<title>fn_2231_basic_block_3</title>
<polygon fill="#d3d3d3" stroke="#000000" points="978.4227,-954.9 978.4227,-1054.9 1129.5773,-1054.9 1129.5773,-954.9 978.4227,-954.9"/>
<text text-anchor="start" x="986.4227" y="-1038.3" font-family="Times,serif" font-size="14.00" fill="#000000">&lt;bb 3&gt;:</text>
<polyline fill="none" stroke="#000000" points="978.4227,-1030.1 1129.5773,-1030.1 "/>
<text text-anchor="start" x="986.4227" y="-1013.5" font-family="Times,serif" font-size="14.00" fill="#000000">if (__priority == 65535)</text>
<text text-anchor="start" x="986.4227" y="-996.7" font-family="Times,serif" font-size="14.00" fill="#000000"> &#160;goto &lt;bb 4&gt;; [INV]</text>
<text text-anchor="start" x="986.4227" y="-979.9" font-family="Times,serif" font-size="14.00" fill="#000000">else</text>
<text text-anchor="start" x="986.4227" y="-963.1" font-family="Times,serif" font-size="14.00" fill="#000000"> &#160;goto &lt;bb 5&gt;; [INV]</text>
</g>
<!-- fn_2231_basic_block_2&#45;&gt;fn_2231_basic_block_3 -->
<g id="edge24" class="edge">
<title>fn_2231_basic_block_2:s&#45;&gt;fn_2231_basic_block_3:n</title>
<path fill="none" stroke="#000000" stroke-width="2" d="M1054,-1103.9C1054,-1086.0354 1054,-1079.1617 1054,-1065.247"/>
<polygon fill="#000000" stroke="#000000" stroke-width="2" points="1057.5001,-1064.9 1054,-1054.9 1050.5001,-1064.9 1057.5001,-1064.9"/>
</g>
<!-- fn_2231_basic_block_5 -->
<g id="node21" class="node">
<title>fn_2231_basic_block_5</title>
<polygon fill="#d3d3d3" stroke="#000000" points="879.9101,-756.9 879.9101,-806.5 940.0899,-806.5 940.0899,-756.9 879.9101,-756.9"/>
<text text-anchor="start" x="887.9101" y="-789.9" font-family="Times,serif" font-size="14.00" fill="#000000">&lt;bb 5&gt;:</text>
<polyline fill="none" stroke="#000000" points="879.9101,-781.7 940.0899,-781.7 "/>
<text text-anchor="start" x="887.9101" y="-765.1" font-family="Times,serif" font-size="14.00" fill="#000000">return;</text>
</g>
<!-- fn_2231_basic_block_2&#45;&gt;fn_2231_basic_block_5 -->
<g id="edge25" class="edge">
<title>fn_2231_basic_block_2:s&#45;&gt;fn_2231_basic_block_5:n</title>
<path fill="none" stroke="#000000" stroke-width="2" d="M1054,-1103.9C1054,-1060.4051 1117.1568,-1093.0122 1139,-1055.4 1162.7207,-1014.5548 1162.8435,-877.8854 1131,-843 1100.0683,-809.1135 938.3493,-849.1521 913.2695,-816.6228"/>
<polygon fill="#000000" stroke="#000000" stroke-width="2" points="916.4537,-815.1024 910,-806.7 909.8053,-817.293 916.4537,-815.1024"/>
</g>
<!-- fn_2231_basic_block_4 -->
<g id="node20" class="node">
<title>fn_2231_basic_block_4</title>
<polygon fill="#d3d3d3" stroke="#000000" points="709.5266,-843.5 709.5266,-917.9 1110.4734,-917.9 1110.4734,-843.5 709.5266,-843.5"/>
<text text-anchor="start" x="717.5266" y="-901.3" font-family="Times,serif" font-size="14.00" fill="#000000">&lt;bb 4&gt;:</text>
<polyline fill="none" stroke="#000000" points="709.5266,-893.1 1110.4734,-893.1 "/>
<text text-anchor="start" x="717.5266" y="-876.5" font-family="Times,serif" font-size="14.00" fill="#000000">std::ios_base::Init::Init (&amp;__ioinit);</text>
<polyline fill="none" stroke="#000000" points="709.5266,-868.3 1110.4734,-868.3 "/>
<text text-anchor="start" x="717.5266" y="-851.7" font-family="Times,serif" font-size="14.00" fill="#000000">__cxxabiv1::__cxa_atexit (__dt_comp , &amp;__ioinit, &amp;__dso_handle);</text>
</g>
<!-- fn_2231_basic_block_3&#45;&gt;fn_2231_basic_block_4 -->
<g id="edge26" class="edge">
<title>fn_2231_basic_block_3:s&#45;&gt;fn_2231_basic_block_4:n</title>
<path fill="none" stroke="#000000" stroke-width="2" d="M1054,-954.9C1054,-892.672 926.3806,-973.2211 911.4252,-927.7248"/>
<polygon fill="#000000" stroke="#000000" stroke-width="2" points="914.8728,-927.1078 910,-917.7 907.9425,-928.0931 914.8728,-927.1078"/>
</g>
<!-- fn_2231_basic_block_3&#45;&gt;fn_2231_basic_block_5 -->
<g id="edge27" class="edge">
<title>fn_2231_basic_block_3:s&#45;&gt;fn_2231_basic_block_5:n</title>
<path fill="none" stroke="#000000" stroke-width="2" d="M1054,-954.9C1054,-921.768 1102.263,-946.9937 1119,-918.4 1135.9285,-889.4791 1140.5734,-868.6434 1119,-843 1060.6766,-773.6736 921.4527,-891.1222 910.6648,-816.7466"/>
<polygon fill="#000000" stroke="#000000" stroke-width="2" points="914.1528,-816.447 910,-806.7 907.168,-816.9093 914.1528,-816.447"/>
</g>
<!-- fn_2231_basic_block_4&#45;&gt;fn_2231_basic_block_5 -->
<g id="edge28" class="edge">
<title>fn_2231_basic_block_4:s&#45;&gt;fn_2231_basic_block_5:n</title>
<path fill="none" stroke="#0000ff" stroke-width="2" d="M910,-843.7C910,-831.2382 910,-825.8592 910,-816.8281"/>
<polygon fill="#0000ff" stroke="#0000ff" stroke-width="2" points="913.5001,-816.7 910,-806.7 906.5001,-816.7 913.5001,-816.7"/>
</g>
<!-- fn_2231_basic_block_5&#45;&gt;fn_2231_basic_block_1 -->
<g id="edge29" class="edge">
<title>fn_2231_basic_block_5:s&#45;&gt;fn_2231_basic_block_1:n</title>
<path fill="none" stroke="#000000" stroke-width="2" d="M910,-756.7C910,-735.7 910,-727.9891 910,-711.1419"/>
<polygon fill="#000000" stroke="#000000" stroke-width="2" points="913.5001,-710.7 910,-700.7 906.5001,-710.7 913.5001,-710.7"/>
</g>
<!-- fn_2232_basic_block_0 -->
<g id="node22" class="node">
<title>fn_2232_basic_block_0</title>
<polygon fill="#ffffff" stroke="#000000" points="1351,-1288.4 1289.76,-1270.4 1351,-1252.4 1412.24,-1270.4 1351,-1288.4"/>
<polyline fill="none" stroke="#000000" points="1301.273,-1273.784 1301.273,-1267.016 "/>
<polyline fill="none" stroke="#000000" points="1339.487,-1255.784 1362.513,-1255.784 "/>
<polyline fill="none" stroke="#000000" points="1400.727,-1267.016 1400.727,-1273.784 "/>
<polyline fill="none" stroke="#000000" points="1362.513,-1285.016 1339.487,-1285.016 "/>
<text text-anchor="middle" x="1351" y="-1266.2" font-family="Times,serif" font-size="14.00" fill="#000000">ENTRY</text>
</g>
<!-- fn_2232_basic_block_1 -->
<g id="node23" class="node">
<title>fn_2232_basic_block_1</title>
<polygon fill="#ffffff" stroke="#000000" points="1351,-1022.9 1304.1002,-1004.9 1351,-986.9 1397.8998,-1004.9 1351,-1022.9"/>
<polyline fill="none" stroke="#000000" points="1315.3034,-1009.1998 1315.3034,-1000.6002 "/>
<polyline fill="none" stroke="#000000" points="1339.7968,-991.1998 1362.2032,-991.1998 "/>
<polyline fill="none" stroke="#000000" points="1386.6966,-1000.6002 1386.6966,-1009.1998 "/>
<polyline fill="none" stroke="#000000" points="1362.2032,-1018.6002 1339.7968,-1018.6002 "/>
<text text-anchor="middle" x="1351" y="-1000.7" font-family="Times,serif" font-size="14.00" fill="#000000">EXIT</text>
</g>
<!-- fn_2232_basic_block_0&#45;&gt;fn_2232_basic_block_1 -->
<!-- fn_2232_basic_block_2 -->
<g id="node24" class="node">
<title>fn_2232_basic_block_2</title>
<polygon fill="#d3d3d3" stroke="#000000" points="1194.2766,-1116.7 1194.2766,-1191.1 1507.7234,-1191.1 1507.7234,-1116.7 1194.2766,-1116.7"/>
<text text-anchor="start" x="1202.2766" y="-1174.5" font-family="Times,serif" font-size="14.00" fill="#000000">&lt;bb 2&gt;:</text>
<polyline fill="none" stroke="#000000" points="1194.2766,-1166.3 1507.7234,-1166.3 "/>
<text text-anchor="start" x="1202.2766" y="-1149.7" font-family="Times,serif" font-size="14.00" fill="#000000">__static_initialization_and_destruction_0 (1, 65535);</text>
<polyline fill="none" stroke="#000000" points="1194.2766,-1141.5 1507.7234,-1141.5 "/>
<text text-anchor="start" x="1202.2766" y="-1124.9" font-family="Times,serif" font-size="14.00" fill="#000000">return;</text>
</g>
<!-- fn_2232_basic_block_0&#45;&gt;fn_2232_basic_block_2 -->
<g id="edge31" class="edge">
<title>fn_2232_basic_block_0:s&#45;&gt;fn_2232_basic_block_2:n</title>
<path fill="none" stroke="#0000ff" stroke-width="2" d="M1351,-1252.4C1351,-1228.8036 1351,-1220.485 1351,-1201.0662"/>
<polygon fill="#0000ff" stroke="#0000ff" stroke-width="2" points="1354.5001,-1200.9 1351,-1190.9 1347.5001,-1200.9 1354.5001,-1200.9"/>
</g>
<!-- fn_2232_basic_block_2&#45;&gt;fn_2232_basic_block_1 -->
<g id="edge32" class="edge">
<title>fn_2232_basic_block_2:s&#45;&gt;fn_2232_basic_block_1:n</title>
<path fill="none" stroke="#000000" stroke-width="2" d="M1351,-1116.9C1351,-1078.7125 1351,-1066.7043 1351,-1033.0164"/>
<polygon fill="#000000" stroke="#000000" stroke-width="2" points="1354.5001,-1032.9 1351,-1022.9 1347.5001,-1032.9 1354.5001,-1032.9"/>
</g>
</g>
</svg>
